<?xml version="1.0" encoding="UTF-8" standalone="no"?>
<!-- Created with Inkscape (http://www.inkscape.org/) -->

<svg
   xmlns:dc="http://purl.org/dc/elements/1.1/"
   xmlns:cc="http://creativecommons.org/ns#"
   xmlns:rdf="http://www.w3.org/1999/02/22-rdf-syntax-ns#"
   xmlns:svg="http://www.w3.org/2000/svg"
   xmlns="http://www.w3.org/2000/svg"
   xmlns:sodipodi="http://sodipodi.sourceforge.net/DTD/sodipodi-0.dtd"
   xmlns:inkscape="http://www.inkscape.org/namespaces/inkscape"
   width="727.8526"
   height="213.35829"
   id="svg2"
   version="1.1"
   inkscape:version="0.48.4 r9939"
   sodipodi:docname="examples.svg"
   inkscape:export-filename="/home/pablo/software/inkscape-extensions/svgGuitarChord/Inkex_svgGuitarChord/examples/examples.png"
   inkscape:export-xdpi="90"
   inkscape:export-ydpi="90">
  <sodipodi:namedview
     id="base"
     pagecolor="#ffffff"
     bordercolor="#666666"
     borderopacity="1.0"
     inkscape:pageopacity="1"
     inkscape:pageshadow="2"
     inkscape:zoom="0.98994949"
     inkscape:cx="371.03254"
     inkscape:cy="-4.779008"
     inkscape:document-units="px"
     inkscape:current-layer="svg2"
     showgrid="false"
     inkscape:window-width="1639"
     inkscape:window-height="1026"
     inkscape:window-x="41"
     inkscape:window-y="24"
     inkscape:window-maximized="1"
     fit-margin-top="10"
     fit-margin-left="10"
     fit-margin-right="10"
     fit-margin-bottom="10" />
  <defs
     id="defs4" />
  <metadata
     id="metadata7">
    <rdf:RDF>
      <cc:Work
         rdf:about="">
        <dc:format>image/svg+xml</dc:format>
        <dc:type
           rdf:resource="http://purl.org/dc/dcmitype/StillImage" />
        <dc:title></dc:title>
      </cc:Work>
    </rdf:RDF>
  </metadata>
  <g
     id="layer1"
     inkscape:groupmode="layer"
     inkscape:label="Capa 1"
     transform="translate(-13.204294,-10.976301)">
    <text
       style="font-size:10px;text-anchor:middle;fill:#000000;font-family:Linux Libertine O"
       x="175.17912"
       y="725.5108"
       id="text3358" />
  </g>
  <text
     id="text3623"
     y="698.96307"
     x="155.54626"
     style="font-size:10px;text-anchor:middle;fill:#000000;font-family:Linux Libertine O" />
  <text
     style="font-size:10px;text-anchor:middle;fill:#000000;font-family:Linux Libertine O"
     x="184.83199"
     y="723.96307"
     id="text3783" />
  <text
     id="text3957"
     y="753.24878"
     x="209.83199"
     style="font-size:10px;text-anchor:middle;fill:#000000;font-family:Linux Libertine O" />
  <path
     inkscape:connector-curvature="0"
     d="m 138.83572,41.844013 h 90 m -90,31.999995 h 90 m -90,32.000002 h 90 m -90,32 h 90 m -90,-95.999997 v 95.999997 m 18,-95.999997 v 95.999997 m 18,-95.999997 v 95.999997 m 18,-95.999997 v 95.999997 m 18,-95.999997 v 95.999997 m 18,-95.999997 v 95.999997"
     style="color:#000000;fill:none;stroke:#000000;stroke-width:1.60000002;stroke-linecap:round"
     id="path3052" />
  <path
     inkscape:connector-curvature="0"
     d="m 138.83572,41.844013 h 90"
     style="color:#000000;fill:none;stroke:#000000;stroke-width:3.20000005;stroke-linecap:round"
     id="path3054" />
  <text
     style="font-size:18px;text-anchor:middle;fill:#000000;font-family:Linux Libertine O"
     x="183.83571"
     y="21.844"
     id="text3056">C</text>
  <text
     style="font-size:8px;text-anchor:middle;fill:#000000;font-family:Linux Libertine O"
     x="228.83571"
     y="28.844"
     id="text3058">E</text>
  <text
     style="font-size:8px;text-anchor:middle;fill:#000000;font-family:Linux Libertine O"
     x="210.83571"
     y="28.844"
     id="text3060">B</text>
  <text
     style="font-size:8px;text-anchor:middle;fill:#000000;font-family:Linux Libertine O"
     x="192.83571"
     y="28.844"
     id="text3062">G</text>
  <text
     style="font-size:8px;text-anchor:middle;fill:#000000;font-family:Linux Libertine O"
     x="174.83571"
     y="28.844"
     id="text3064">D</text>
  <text
     style="font-size:8px;text-anchor:middle;fill:#000000;font-family:Linux Libertine O"
     x="156.83571"
     y="28.844"
     id="text3066">A</text>
  <text
     style="font-size:8px;text-anchor:middle;fill:#000000;font-family:Linux Libertine O"
     x="138.83568"
     y="28.844"
     id="text3068">E</text>
  <text
     style="font-size:10px;text-anchor:middle;fill:#000000;font-family:Linux Libertine O"
     x="228.83571"
     y="149.84399"
     id="text3070">3</text>
  <text
     style="font-size:10px;text-anchor:middle;fill:#000000;font-family:Linux Libertine O"
     x="210.83571"
     y="149.84399"
     id="text3072">r</text>
  <text
     style="font-size:10px;text-anchor:middle;fill:#000000;font-family:Linux Libertine O"
     x="192.83571"
     y="149.84399"
     id="text3074">5</text>
  <text
     style="font-size:10px;text-anchor:middle;fill:#000000;font-family:Linux Libertine O"
     x="174.83571"
     y="149.84399"
     id="text3076">3</text>
  <text
     style="font-size:10px;text-anchor:middle;fill:#000000;font-family:Linux Libertine O"
     x="156.83571"
     y="149.84399"
     id="text3078">R</text>
  <text
     style="font-size:10px;text-anchor:middle;fill:#000000;font-family:Linux Libertine O"
     x="345.26428"
     y="381.27258"
     id="text3080" />
  <path
     inkscape:connector-curvature="0"
     d="m 210.83572,61.844013 m -6,0 a 6,6 0 0 0 12,0 6,6 0 1 0 -12,0"
     style="color:#000000;fill:#000000"
     id="path3082" />
  <path
     inkscape:connector-curvature="0"
     d="m 174.83572,93.844009 m -6,0 a 6,6 0 0 0 12,0 6,6 0 1 0 -12,0"
     style="color:#000000;fill:#000000"
     id="path3084" />
  <path
     inkscape:connector-curvature="0"
     d="m 156.83572,125.84401 m -6,0 a 6,6 0 0 0 12,0 6,6 0 1 0 -12,0"
     style="color:#000000;fill:#000000"
     id="path3086" />
  <path
     inkscape:connector-curvature="0"
     d="m 138.83572,34.844013 m 4,4 -8,-8 m 4,4 m -4,4 8,-8"
     style="color:#000000;fill:none;stroke:#000000;stroke-width:1.10000002;stroke-linecap:round"
     id="path3088" />
  <path
     inkscape:connector-curvature="0"
     d="m 228.83572,34.844013 m -4,0 a 4,4 0 0 0 8,0 4,4 0 1 0 -8,0"
     style="color:#000000;fill:none;stroke:#000000;stroke-width:1.10000002;stroke-linecap:round"
     id="path3090" />
  <path
     inkscape:connector-curvature="0"
     d="m 192.83572,34.844013 m -4,0 a 4,4 0 0 0 8,0 4,4 0 1 0 -8,0"
     style="color:#000000;fill:none;stroke:#000000;stroke-width:1.10000002;stroke-linecap:round"
     id="path3092" />
  <path
     id="path3152"
     style="color:#000000;fill:none;stroke:#000000;stroke-width:1.60000002;stroke-linecap:round"
     d="m 14.55,41.129726 h 90 m -90,32 h 90 m -90,31.999994 h 90 m -90,32 h 90 m -90,32 h 90 M 14.55,41.129726 V 169.12972 m 18,-127.999994 V 169.12972 m 18,-127.999994 V 169.12972 m 18,-127.999994 V 169.12972 m 18,-127.999994 V 169.12972 m 18,-127.999994 V 169.12972"
     inkscape:connector-curvature="0" />
  <path
     id="path3154"
     style="color:#000000;fill:none;stroke:#000000;stroke-width:3.20000005;stroke-linecap:round"
     d="m 14.55,41.129726 h 90"
     inkscape:connector-curvature="0" />
  <text
     id="text3156"
     y="26.129713"
     x="59.549988"
     style="font-size:18px;text-anchor:middle;fill:#000000;font-family:Linux Libertine O">C</text>
  <path
     id="path3158"
     style="color:#000000;fill:#000000"
     d="m 86.55,61.129726 m -6,0 a 6,6 0 0 0 11.999996,0 6,6 0 1 0 -11.999996,0"
     inkscape:connector-curvature="0" />
  <path
     id="path3160"
     style="color:#000000;fill:#000000"
     d="m 50.55,93.129719 m -6,0 a 6,6 0 0 0 12,0 6,6 0 1 0 -12,0"
     inkscape:connector-curvature="0" />
  <path
     id="path3162"
     style="color:#000000;fill:#000000"
     d="m 32.55,125.12972 m -6,0 a 6,6 0 0 0 12,0 6,6 0 1 0 -12,0"
     inkscape:connector-curvature="0" />
  <text
     id="text3164"
     y="54.629711"
     x="88.549988"
     style="font-size:8px;text-anchor:start;fill:#000000;font-family:Century Schoolbook L">1</text>
  <text
     id="text3166"
     y="86.629707"
     x="52.549988"
     style="font-size:8px;text-anchor:start;fill:#000000;font-family:Century Schoolbook L">2</text>
  <text
     id="text3168"
     y="118.62971"
     x="34.549988"
     style="font-size:8px;text-anchor:start;fill:#000000;font-family:Century Schoolbook L">3</text>
  <path
     id="path3170"
     style="color:#000000;fill:none;stroke:#000000;stroke-width:1.10000002;stroke-linecap:round"
     d="m 14.55,34.129726 m 4,4 -8,-8 m 4,4 m -4,4 8,-8"
     inkscape:connector-curvature="0" />
  <path
     id="path3172"
     style="color:#000000;fill:none;stroke:#000000;stroke-width:1.10000002;stroke-linecap:round"
     d="m 104.55,34.129726 m -4,0 a 4,4 0 0 0 8,0 4,4 0 1 0 -8,0"
     inkscape:connector-curvature="0" />
  <path
     id="path3174"
     style="color:#000000;fill:none;stroke:#000000;stroke-width:1.10000002;stroke-linecap:round"
     d="m 68.55,34.129726 m -4,0 a 4,4 0 0 0 8,0 4,4 0 1 0 -8,0"
     inkscape:connector-curvature="0" />
  <path
     id="path3408"
     style="color:#000000;fill:none;stroke:#000000;stroke-width:1.60000002;stroke-linecap:round"
     d="m 255.97858,42.558298 h 90 m -90,32 h 90 m -90,31.999992 h 90 m -90,32 h 90 m -90,32 h 90 m -90,32 h 90 m -90,-159.999992 V 202.55829 m 18,-159.999992 V 202.55829 m 18,-159.999992 V 202.55829 m 18,-159.999992 V 202.55829 m 18,-159.999992 V 202.55829 m 18,-159.999992 V 202.55829"
     inkscape:connector-curvature="0" />
  <path
     id="path3410"
     style="color:#000000;fill:none;stroke:#000000;stroke-width:3.20000005;stroke-linecap:round"
     d="m 255.97858,42.558298 h 90"
     inkscape:connector-curvature="0" />
  <text
     id="text3412"
     y="27.558283"
     x="300.97861"
     style="font-size:18px;text-anchor:middle;fill:#000000;font-family:Linux Libertine O">F</text>
  <path
     id="path3414"
     style="color:#000000;fill:#000000"
     d="m 345.97858,62.558298 m -6,0 a 6,6 0 0 0 12,0 6,6 0 1 0 -12,0"
     inkscape:connector-curvature="0" />
  <path
     id="path3416"
     style="color:#000000;fill:#000000"
     d="m 327.97858,62.558298 m -6,0 a 6,6 0 0 0 12,0 6,6 0 1 0 -12,0"
     inkscape:connector-curvature="0" />
  <path
     id="path3418"
     style="color:#000000;fill:#000000"
     d="m 309.97858,94.558289 m -6,0 a 6,6 0 0 0 12,0 6,6 0 1 0 -12,0"
     inkscape:connector-curvature="0" />
  <path
     id="path3420"
     style="color:#000000;fill:#000000"
     d="m 291.97858,126.55829 m -6,0 a 6,6 0 0 0 12,0 6,6 0 1 0 -12,0"
     inkscape:connector-curvature="0" />
  <path
     id="path3422"
     style="color:#000000;fill:#000000"
     d="m 273.97858,126.55829 m -6,0 a 6,6 0 0 0 12,0 6,6 0 1 0 -12,0"
     inkscape:connector-curvature="0" />
  <path
     id="path3424"
     style="color:#000000;fill:#000000"
     d="m 255.97858,62.558298 m -6,0 a 6,6 0 0 0 12,0 6,6 0 1 0 -12,0"
     inkscape:connector-curvature="0" />
  <text
     id="text3426"
     y="56.058285"
     x="347.97861"
     style="font-size:8px;text-anchor:start;fill:#000000;font-family:Century Schoolbook L">1</text>
  <text
     id="text3428"
     y="56.058285"
     x="329.97861"
     style="font-size:8px;text-anchor:start;fill:#000000;font-family:Century Schoolbook L">1</text>
  <text
     id="text3430"
     y="88.058281"
     x="311.97861"
     style="font-size:8px;text-anchor:start;fill:#000000;font-family:Century Schoolbook L">2</text>
  <text
     id="text3432"
     y="120.05829"
     x="293.97861"
     style="font-size:8px;text-anchor:start;fill:#000000;font-family:Century Schoolbook L">4</text>
  <text
     id="text3434"
     y="120.05829"
     x="275.97861"
     style="font-size:8px;text-anchor:start;fill:#000000;font-family:Century Schoolbook L">3</text>
  <text
     id="text3436"
     y="56.058285"
     x="257.97861"
     style="font-size:8px;text-anchor:start;fill:#000000;font-family:Century Schoolbook L">1</text>
  <path
     id="path3438"
     style="color:#000000;fill:none;stroke:#000000;stroke-width:2;stroke-linecap:round"
     d="m 345.97858,62.558298 -18,0"
     inkscape:connector-curvature="0" />
  <path
     id="path3440"
     style="color:#000000;fill:none;stroke:#000000;stroke-width:2;stroke-linecap:round"
     d="m 327.97858,62.558298 -72,0"
     inkscape:connector-curvature="0" />
  <path
     inkscape:connector-curvature="0"
     d="m 383.63716,47.176548 h 90 m -90,32 h 90 m -90,32.000002 h 90 m -90,32 h 90 m -90,-96.000002 v 96.000002 m 18,-96.000002 v 96.000002 m 18,-96.000002 v 96.000002 m 18,-96.000002 v 96.000002 m 18,-96.000002 v 96.000002 m 18,-96.000002 v 96.000002"
     style="color:#000000;fill:none;stroke:#000000;stroke-width:1.60000002;stroke-linecap:round"
     id="path7054" />
  <text
     style="font-size:8px;text-anchor:end;fill:#000000;font-family:Century Schoolbook L"
     x="378.63718"
     y="47.176552"
     id="text7056">C III</text>
  <path
     inkscape:connector-curvature="0"
     d="m 383.63716,43.176548 h 90"
     style="color:#000000;fill:none;stroke:#000000;stroke-width:3.20000005;stroke-linecap:round"
     id="path7058" />
  <path
     inkscape:connector-curvature="0"
     d="m 383.63716,43.176548 v 4 m 18,-4 v 4 m 18,-4 v 4 m 18,-4 v 4 m 18,-4 v 4 m 18,-4 v 4"
     style="color:#000000;fill:none;stroke:#000000;stroke-width:1.60000002;stroke-linecap:round"
     id="path7060" />
  <text
     style="font-size:18px;text-anchor:middle;fill:#000000;font-family:Linux Libertine O"
     x="428.63718"
     y="28.17655"
     id="text7062">E (G)</text>
  <path
     inkscape:connector-curvature="0"
     d="m 437.63716,67.176548 m -6,0 a 6,6 0 0 0 12,0 6,6 0 1 0 -12,0"
     style="color:#000000;fill:#000000"
     id="path7064" />
  <path
     inkscape:connector-curvature="0"
     d="m 419.63716,99.176549 m -6,0 a 6,6 0 0 0 12,0 6,6 0 1 0 -12,0"
     style="color:#000000;fill:#000000"
     id="path7066" />
  <path
     inkscape:connector-curvature="0"
     d="m 401.63716,99.176549 m -6,0 a 6,6 0 0 0 12,0 6,6 0 1 0 -12,0"
     style="color:#000000;fill:#000000"
     id="path7068" />
  <text
     style="font-size:8px;text-anchor:start;fill:#000000;font-family:Century Schoolbook L"
     x="439.63718"
     y="60.676548"
     id="text7070">1</text>
  <text
     style="font-size:8px;text-anchor:start;fill:#000000;font-family:Century Schoolbook L"
     x="421.63718"
     y="92.676544"
     id="text7072">3</text>
  <text
     style="font-size:8px;text-anchor:start;fill:#000000;font-family:Century Schoolbook L"
     x="403.63718"
     y="92.676544"
     id="text7074">2</text>
  <path
     inkscape:connector-curvature="0"
     d="m 473.63716,36.176548 m -4,0 a 4,4 0 0 0 8,0 4,4 0 1 0 -8,0"
     style="color:#000000;fill:none;stroke:#000000;stroke-width:1.10000002;stroke-linecap:round"
     id="path7076" />
  <path
     inkscape:connector-curvature="0"
     d="m 455.63716,36.176548 m -4,0 a 4,4 0 0 0 8,0 4,4 0 1 0 -8,0"
     style="color:#000000;fill:none;stroke:#000000;stroke-width:1.10000002;stroke-linecap:round"
     id="path7078" />
  <path
     inkscape:connector-curvature="0"
     d="m 383.63716,36.176548 m -4,0 a 4,4 0 0 0 8,0 4,4 0 1 0 -8,0"
     style="color:#000000;fill:none;stroke:#000000;stroke-width:1.10000002;stroke-linecap:round"
     id="path7080" />
  <path
     id="path7704"
     style="color:#000000;fill:none;stroke:#000000;stroke-width:1.60000002;stroke-linecap:round"
     d="m 501.99958,45.404975 h 90 m -90,32 h 90 m -90,32.000005 h 90 m -90,32 h 90 m -90,-96.000005 v 96.000005 m 18,-96.000005 v 96.000005 m 18,-96.000005 v 96.000005 m 18,-96.000005 v 96.000005 m 18,-96.000005 v 96.000005 m 18,-96.000005 v 96.000005"
     inkscape:connector-curvature="0" />
  <text
     id="text7706"
     y="73.404984"
     x="494.99954"
     style="font-size:8px;text-anchor:end;fill:#000000;font-family:Century Schoolbook L">V</text>
  <text
     id="text7708"
     y="30.404978"
     x="546.99957"
     style="font-size:18px;text-anchor:middle;fill:#000000;font-family:Linux Libertine O">Am7</text>
  <path
     id="path7710"
     style="color:#000000;fill:#000000"
     d="m 573.99958,65.404975 m -6,0 a 6,6 0 0 0 12,0 6,6 0 1 0 -12,0"
     inkscape:connector-curvature="0" />
  <path
     id="path7712"
     style="color:#000000;fill:#000000"
     d="m 555.99958,65.404975 m -6,0 a 6,6 0 0 0 12,0 6,6 0 1 0 -12,0"
     inkscape:connector-curvature="0" />
  <path
     id="path7714"
     style="color:#000000;fill:#000000"
     d="m 537.99958,65.404975 m -6,0 a 6,6 0 0 0 12,0 6,6 0 1 0 -12,0"
     inkscape:connector-curvature="0" />
  <path
     id="path7716"
     style="color:#000000;fill:#000000"
     d="m 501.99958,65.404975 m -6,0 a 6,6 0 0 0 12,0 6,6 0 1 0 -12,0"
     inkscape:connector-curvature="0" />
  <text
     id="text7718"
     y="58.90498"
     x="575.99957"
     style="font-size:8px;text-anchor:start;fill:#000000;font-family:Century Schoolbook L">3</text>
  <text
     id="text7720"
     y="58.90498"
     x="557.99957"
     style="font-size:8px;text-anchor:start;fill:#000000;font-family:Century Schoolbook L">3</text>
  <text
     id="text7722"
     y="58.90498"
     x="539.99957"
     style="font-size:8px;text-anchor:start;fill:#000000;font-family:Century Schoolbook L">3</text>
  <text
     id="text7724"
     y="58.90498"
     x="503.99957"
     style="font-size:8px;text-anchor:start;fill:#000000;font-family:Century Schoolbook L">1</text>
  <path
     id="path7726"
     style="color:#000000;fill:none;stroke:#000000;stroke-width:1.10000002;stroke-linecap:round"
     d="m 591.99958,38.404975 m 4,4 -8,-8 m 4,4 m -4,4 8,-8"
     inkscape:connector-curvature="0" />
  <path
     id="path7728"
     style="color:#000000;fill:none;stroke:#000000;stroke-width:1.10000002;stroke-linecap:round"
     d="m 519.99958,38.404975 m 4,4 -8,-8 m 4,4 m -4,4 8,-8"
     inkscape:connector-curvature="0" />
  <path
     id="path7730"
     style="color:#000000;fill:none;stroke:#000000;stroke-width:2;stroke-linecap:round"
     d="m 573.99958,65.404975 -18,0"
     inkscape:connector-curvature="0" />
  <path
     id="path7732"
     style="color:#000000;fill:none;stroke:#000000;stroke-width:2;stroke-linecap:round"
     d="m 555.99958,65.404975 -18,0"
     inkscape:connector-curvature="0" />
  <path
     d="m 623.30257,46.670581 h 90 m -90,32 h 90 m -90,31.999999 h 90 m -90,32 h 90 m -90,32 h 90 m -90,-127.999999 V 174.67058 m 18,-127.999999 V 174.67058 m 18,-127.999999 V 174.67058 m 18,-127.999999 V 174.67058 m 18,-127.999999 V 174.67058 m 18,-127.999999 V 174.67058"
     style="color:#000000;fill:none;stroke:#000000;stroke-width:1.60000002;stroke-linecap:round"
     id="path8365"
     inkscape:connector-curvature="0" />
  <text
     style="font-size:8px;text-anchor:end;fill:#000000;font-family:Century Schoolbook L"
     x="616.30255"
     y="74.670586"
     id="text8367">VII</text>
  <text
     style="font-size:18px;text-anchor:middle;fill:#000000;font-family:Linux Libertine O"
     x="668.30255"
     y="31.670584"
     id="text8369">#1</text>
  <path
     d="m 695.30257,130.67058 m -6,0 a 6,6 0 0 0 12,0 6,6 0 1 0 -12,0"
     style="color:#000000;fill:#000000"
     id="path8371"
     inkscape:connector-curvature="0" />
  <path
     d="m 641.30257,66.670581 m -6,0 a 6,6 0 0 0 12,0 6,6 0 1 0 -12,0"
     style="color:#000000;fill:#000000"
     id="path8373"
     inkscape:connector-curvature="0" />
  <path
     d="m 677.30257,39.670581 m 4,4 -8,-8 m 4,4 m -4,4 8,-8"
     style="color:#000000;fill:none;stroke:#000000;stroke-width:1.10000002;stroke-linecap:round"
     id="path8379"
     inkscape:connector-curvature="0" />
  <path
     d="m 659.30257,39.670581 m 4,4 -8,-8 m 4,4 m -4,4 8,-8"
     style="color:#000000;fill:none;stroke:#000000;stroke-width:1.10000002;stroke-linecap:round"
     id="path8381"
     inkscape:connector-curvature="0" />
  <path
     d="m 623.30257,39.670581 m 4,4 -8,-8 m 4,4 m -4,4 8,-8"
     style="color:#000000;fill:none;stroke:#000000;stroke-width:1.10000002;stroke-linecap:round"
     id="path8383"
     inkscape:connector-curvature="0" />
  <path
     d="m 713.30257,39.670581 m -4,0 a 4,4 0 0 0 8,0 4,4 0 1 0 -8,0"
     style="color:#000000;fill:none;stroke:#000000;stroke-width:1.10000002;stroke-linecap:round"
     id="path8385"
     inkscape:connector-curvature="0" />
</svg>
